<svg width="21" height="16" viewBox="0 0 21 16" fill="none" xmlns="http://www.w3.org/2000/svg">
<path d="M10.4275 5.96045C9.52046 5.96045 8.75403 6.76195 8.75403 7.71045C8.75403 8.65895 9.52046 9.46045 10.4275 9.46045C11.3345 9.46045 12.1009 8.65895 12.1009 7.71045C12.1009 6.76195 11.3345 5.96045 10.4275 5.96045Z" fill="#805AD5"/>
<path d="M10.4279 1.58545C4.0412 1.58545 2.12177 7.37532 2.1042 7.43395L2.0155 7.71045L2.10336 7.98695C2.12177 8.04557 4.0412 13.8354 10.4279 13.8354C16.8145 13.8354 18.734 8.04557 18.7516 7.98695L18.8402 7.71045L18.7524 7.43395C18.734 7.37532 16.8145 1.58545 10.4279 1.58545ZM10.4279 11.2104C8.58207 11.2104 7.081 9.6407 7.081 7.71045C7.081 5.7802 8.58207 4.21045 10.4279 4.21045C12.2737 4.21045 13.7747 5.7802 13.7747 7.71045C13.7747 9.6407 12.2737 11.2104 10.4279 11.2104Z" fill="#805AD5"/>
<path d="M0.678223 1.14795L20.1805 14.271" stroke="#805AD5" stroke-width="2"/>
</svg>
