<svg width="17" height="13" viewBox="0 0 17 13" fill="none" xmlns="http://www.w3.org/2000/svg">
<path d="M8.42747 4.96045C7.52046 4.96045 6.75403 5.76195 6.75403 6.71045C6.75403 7.65895 7.52046 8.46045 8.42747 8.46045C9.33447 8.46045 10.1009 7.65895 10.1009 6.71045C10.1009 5.76195 9.33447 4.96045 8.42747 4.96045Z" fill="#805AD5"/>
<path d="M8.42787 0.585449C2.0412 0.585449 0.121766 6.37532 0.104195 6.43395L0.0155029 6.71045L0.103359 6.98695C0.121766 7.04557 2.0412 12.8354 8.42787 12.8354C14.8145 12.8354 16.734 7.04557 16.7516 6.98695L16.8402 6.71045L16.7524 6.43395C16.734 6.37532 14.8145 0.585449 8.42787 0.585449ZM8.42787 10.2104C6.58207 10.2104 5.081 8.6407 5.081 6.71045C5.081 4.7802 6.58207 3.21045 8.42787 3.21045C10.2737 3.21045 11.7747 4.7802 11.7747 6.71045C11.7747 8.6407 10.2737 10.2104 8.42787 10.2104Z" fill="#805AD5"/>
</svg>
