<svg width="inherit" height="inherit" viewBox="0 0 27 26" fill="none" xmlns="http://www.w3.org/2000/svg">
<path d="M24.7304 0.132812L14.6556 7.9578L16.5187 3.34116L24.7304 0.132812Z" fill="#E2761B" stroke="#E2761B" stroke-width="0.162151" stroke-linecap="round" stroke-linejoin="round"/>
<path d="M1.46478 0.132812L11.4585 8.03192L9.68657 3.34116L1.46478 0.132812Z" fill="#E4761B" stroke="#E4761B" stroke-width="0.162151" stroke-linecap="round" stroke-linejoin="round"/>
<path d="M21.1008 18.2727L18.4175 22.5717L24.1586 24.2235L25.8091 18.368L21.1008 18.2727Z" fill="#E4761B" stroke="#E4761B" stroke-width="0.162151" stroke-linecap="round" stroke-linejoin="round"/>
<path d="M0.403381 18.368L2.04369 24.2235L7.78477 22.5717L5.10155 18.2727L0.403381 18.368Z" fill="#E4761B" stroke="#E4761B" stroke-width="0.162151" stroke-linecap="round" stroke-linejoin="round"/>
<path d="M7.46162 11.0033L5.86182 13.534L11.5624 13.7987L11.3599 7.39256L7.46162 11.0033Z" fill="#E4761B" stroke="#E4761B" stroke-width="0.162151" stroke-linecap="round" stroke-linejoin="round"/>
<path d="M18.7328 11.0094L14.7839 7.3246L14.6523 13.8048L20.3427 13.5401L18.7328 11.0094Z" fill="#E4761B" stroke="#E4761B" stroke-width="0.162151" stroke-linecap="round" stroke-linejoin="round"/>
<path d="M7.78595 22.57L11.2083 20.8228L8.25172 18.4086L7.78595 22.57Z" fill="#E4761B" stroke="#E4761B" stroke-width="0.162151" stroke-linecap="round" stroke-linejoin="round"/>
<path d="M14.9844 20.8228L18.4169 22.57L17.941 18.4086L14.9844 20.8228Z" fill="#E4761B" stroke="#E4761B" stroke-width="0.162151" stroke-linecap="round" stroke-linejoin="round"/>
<path d="M18.4218 22.5798L14.9893 20.8326L15.2627 23.1727L15.2323 24.1575L18.4218 22.5798Z" fill="#D7C1B3" stroke="#D7C1B3" stroke-width="0.162151" stroke-linecap="round" stroke-linejoin="round"/>
<path d="M7.79089 22.5798L10.9804 24.1575L10.9601 23.1727L11.2133 20.8326L7.79089 22.5798Z" fill="#D7C1B3" stroke="#D7C1B3" stroke-width="0.162151" stroke-linecap="round" stroke-linejoin="round"/>
<path d="M11.0273 16.8685L8.172 15.9896L10.1869 15.026L11.0273 16.8685Z" fill="#233447" stroke="#233447" stroke-width="0.162151" stroke-linecap="round" stroke-linejoin="round"/>
<path d="M15.1683 16.8685L16.0087 15.026L18.0338 15.9896L15.1683 16.8685Z" fill="#233447" stroke="#233447" stroke-width="0.162151" stroke-linecap="round" stroke-linejoin="round"/>
<path d="M7.78808 22.5713L8.2741 18.2723L5.10486 18.3676L7.78808 22.5713Z" fill="#CD6116" stroke="#CD6116" stroke-width="0.162151" stroke-linecap="round" stroke-linejoin="round"/>
<path d="M17.935 18.2723L18.421 22.5713L21.1042 18.3676L17.935 18.2723Z" fill="#CD6116" stroke="#CD6116" stroke-width="0.162151" stroke-linecap="round" stroke-linejoin="round"/>
<path d="M20.3439 13.5382L14.6534 13.8029L15.18 16.863L16.0204 15.0206L18.0454 15.9841L20.3439 13.5382Z" fill="#CD6116" stroke="#CD6116" stroke-width="0.162151" stroke-linecap="round" stroke-linejoin="round"/>
<path d="M8.17516 15.9841L10.2002 15.0206L11.0305 16.863L11.5672 13.8029L5.86658 13.5382L8.17516 15.9841Z" fill="#CD6116" stroke="#CD6116" stroke-width="0.162151" stroke-linecap="round" stroke-linejoin="round"/>
<path d="M5.86633 13.5382L8.25592 18.4089L8.17491 15.9841L5.86633 13.5382Z" fill="#E4751F" stroke="#E4751F" stroke-width="0.162151" stroke-linecap="round" stroke-linejoin="round"/>
<path d="M18.0468 15.9841L17.9456 18.4089L20.3453 13.5382L18.0468 15.9841Z" fill="#E4751F" stroke="#E4751F" stroke-width="0.162151" stroke-linecap="round" stroke-linejoin="round"/>
<path d="M11.5653 13.8024L11.0287 16.8625L11.697 20.4733L11.8488 15.719L11.5653 13.8024Z" fill="#E4751F" stroke="#E4751F" stroke-width="0.162151" stroke-linecap="round" stroke-linejoin="round"/>
<path d="M14.6522 13.8024L14.3788 15.7084L14.5004 20.4733L15.1787 16.8625L14.6522 13.8024Z" fill="#E4751F" stroke="#E4751F" stroke-width="0.162151" stroke-linecap="round" stroke-linejoin="round"/>
<path d="M15.1788 16.8638L14.5004 20.4745L14.9864 20.8239L17.943 18.4097L18.0443 15.985L15.1788 16.8638Z" fill="#F6851B" stroke="#F6851B" stroke-width="0.162151" stroke-linecap="round" stroke-linejoin="round"/>
<path d="M8.172 15.985L8.253 18.4097L11.2096 20.8239L11.6956 20.4745L11.0273 16.8638L8.172 15.985Z" fill="#F6851B" stroke="#F6851B" stroke-width="0.162151" stroke-linecap="round" stroke-linejoin="round"/>
<path d="M15.2278 24.1542L15.2582 23.1694L15.0051 22.9365H11.1878L10.9549 23.1694L10.9752 24.1542L7.78571 22.5765L8.8995 23.5295L11.1575 25.1707H15.0355L17.3035 23.5295L18.4173 22.5765L15.2278 24.1542Z" fill="#C0AD9E" stroke="#C0AD9E" stroke-width="0.162151" stroke-linecap="round" stroke-linejoin="round"/>
<path d="M14.9889 20.8269L14.5029 20.4775H11.6981L11.2121 20.8269L10.959 23.167L11.1919 22.934H15.0091L15.2623 23.167L14.9889 20.8269Z" fill="#161616" stroke="#161616" stroke-width="0.162151" stroke-linecap="round" stroke-linejoin="round"/>
<path d="M25.1537 8.46605L26.0143 4.1459L24.7284 0.132812L14.9878 7.69308L18.7342 11.0073L24.0297 12.6274L25.2043 11.1979L24.698 10.8167L25.508 10.0438L24.8803 9.5355L25.6903 8.88959L25.1537 8.46605Z" fill="#763D16" stroke="#763D16" stroke-width="0.162151" stroke-linecap="round" stroke-linejoin="round"/>
<path d="M0.193787 4.1459L1.05444 8.46605L0.507673 8.88959L1.3177 9.5355L0.700055 10.0438L1.51008 10.8167L1.00382 11.1979L2.16823 12.6274L7.46379 11.0073L11.2102 7.69308L1.46958 0.132812L0.193787 4.1459Z" fill="#763D16" stroke="#763D16" stroke-width="0.162151" stroke-linecap="round" stroke-linejoin="round"/>
<path d="M24.0261 12.633L18.7306 11.013L20.3405 13.5437L17.9408 18.4144L21.0999 18.3721H25.8082L24.0261 12.633Z" fill="#F6851B" stroke="#F6851B" stroke-width="0.162151" stroke-linecap="round" stroke-linejoin="round"/>
<path d="M7.46417 11.013L2.16861 12.633L0.406799 18.3721H5.10497L8.25395 18.4144L5.86437 13.5437L7.46417 11.013Z" fill="#F6851B" stroke="#F6851B" stroke-width="0.162151" stroke-linecap="round" stroke-linejoin="round"/>
<path d="M14.6533 13.8109L14.9874 7.70122L16.5265 3.3493H9.69183L11.2106 7.70122L11.565 13.8109L11.6865 15.738L11.6967 20.4817H14.5014L14.5216 15.738L14.6533 13.8109Z" fill="#F6851B" stroke="#F6851B" stroke-width="0.162151" stroke-linecap="round" stroke-linejoin="round"/>
</svg>
