<svg width="40" height="21" viewBox="0 0 40 21" fill="none" xmlns="http://www.w3.org/2000/svg">
<path d="M34.0502 4.58274L39.6644 19.7068L1.00009 20.1328V1.17452L2.90683 2.66562C3.29523 2.3106 4.24154 1.51534 4.91949 1.17452C5.59744 0.833692 9.08606 2.66561 10.7456 3.62418C11.5224 3.41116 13.4574 3.11294 14.9828 3.62418C16.8895 4.26322 18.1607 6.18035 18.6903 4.58274C19.22 2.98513 21.4445 4.58274 22.5038 4.58274C23.3513 4.58274 26.176 3.9437 27.4825 3.62418C28.2593 4.33422 30.1731 5.71172 31.6138 5.54131C33.0544 5.37089 33.8383 4.83126 34.0502 4.58274Z" fill="url(#paint0_linear_1_751)" fill-opacity="0.12"/>
<path d="M39.4882 19.7824L34.0291 4.58137C33.8165 4.82979 33.03 5.36921 31.5844 5.53955C30.1388 5.7099 28.2184 4.33295 27.4389 3.62318C26.128 3.94258 23.2935 4.58137 22.4431 4.58137C21.3802 4.58137 19.148 2.9844 18.6165 4.58137C18.0851 6.17834 16.8095 4.26197 14.8963 3.62318C13.3656 3.11215 11.424 3.41025 10.6445 3.62318C8.97924 2.665 5.47864 0.833811 4.79836 1.1745C4.11808 1.51519 3.16852 2.31013 2.77878 2.66501L1.13122 1.1745" stroke="#FF0000" stroke-width="0.30243" stroke-linecap="round"/>
<defs>
<linearGradient id="paint0_linear_1_751" x1="20.3323" y1="1.13281" x2="20.3323" y2="20.1328" gradientUnits="userSpaceOnUse">
<stop stop-color="#FF001F"/>
<stop offset="0.901042" stop-color="white"/>
</linearGradient>
</defs>
</svg>
