<svg width="10" height="6" viewBox="0 0 10 6" fill="none" xmlns="http://www.w3.org/2000/svg">
<path d="M5.16726 5.61387L9.61279 0.734703C9.687 0.653292 9.7284 0.545131 9.7284 0.432655C9.7284 0.320179 9.687 0.212018 9.61279 0.130608L9.60777 0.125354C9.57179 0.0857506 9.52848 0.0542154 9.48048 0.0326662C9.43248 0.0111165 9.3808 3.78292e-06 9.32856 3.77814e-06C9.27632 3.77337e-06 9.22463 0.0111165 9.17664 0.0326662C9.12864 0.0542154 9.08533 0.0857505 9.04935 0.125354L4.86336 4.71999L0.679042 0.125353C0.643066 0.0857497 0.599761 0.0542146 0.551761 0.0326654C0.503762 0.0111157 0.452073 2.96663e-06 0.399837 2.96186e-06C0.347601 2.95708e-06 0.295912 0.0111156 0.247913 0.0326653C0.199914 0.0542146 0.156608 0.0857497 0.120632 0.125353L0.115608 0.130607C0.0413947 0.212018 -6.22183e-06 0.320178 -6.23123e-06 0.432654C-6.24063e-06 0.54513 0.0413947 0.653291 0.115608 0.734702L4.56113 5.61387C4.60023 5.65678 4.64725 5.69094 4.69934 5.71429C4.75144 5.73763 4.80752 5.74966 4.8642 5.74966C4.92087 5.74966 4.97696 5.73763 5.02905 5.71429C5.08115 5.69094 5.12817 5.65678 5.16726 5.61387Z" fill="white"/>
</svg>
