<svg width="27" height="28" viewBox="0 0 27 28" fill="none" xmlns="http://www.w3.org/2000/svg">
<path d="M8.09156 11.4782L13.1062 6.23627L18.1228 11.4824L21.039 8.4307L13.1062 0.132812L5.17334 8.42857L8.09156 11.4782Z" fill="#F3BA2F"/>
<path d="M0.193787 13.6325L3.11094 10.5819L6.02809 13.6325L3.11094 16.6831L0.193787 13.6325Z" fill="#F3BA2F"/>
<path d="M8.08935 15.7868L13.104 21.0308L18.1206 15.7846L21.0388 18.8321L21.0368 18.8342L13.104 27.1321L5.17113 18.8385L5.16705 18.8342L8.08935 15.7868Z" fill="#F3BA2F"/>
<path d="M20.1782 13.6358L23.0954 10.5852L26.0125 13.6358L23.0954 16.6864L20.1782 13.6358Z" fill="#F3BA2F"/>
<path d="M16.0624 13.6309L13.1034 10.5344L10.9152 12.8227L10.6624 13.085L10.1444 13.6267L10.1403 13.6309L10.1444 13.6373L13.1034 16.7296L16.0624 13.6331L16.0644 13.6309H16.0624Z" fill="#F3BA2F"/>
</svg>
