<svg width="19" height="16" viewBox="0 0 19 16" fill="none" xmlns="http://www.w3.org/2000/svg">
<path d="M3.78483 1.28281C3.78483 1.10876 3.71871 0.941838 3.60102 0.818768C3.48334 0.695697 3.32372 0.626556 3.15729 0.626556C2.99085 0.626556 2.83124 0.695697 2.71355 0.818768C2.59586 0.941838 2.52975 1.10876 2.52975 1.28281V12.8236L1.09143 11.3182C0.973593 11.195 0.813774 11.1257 0.64713 11.1257C0.480487 11.1257 0.320668 11.195 0.202833 11.3182C0.0849979 11.4414 0.0187988 11.6085 0.0187988 11.7828C0.0187988 11.9571 0.0849979 12.1242 0.202833 12.2474L2.71299 14.8711L2.72177 14.8803C2.8396 15.0005 2.99804 15.067 3.1626 15.0656C3.32716 15.0641 3.48449 14.9947 3.60033 14.8724L6.11049 12.2474C6.16883 12.1865 6.21513 12.1141 6.24674 12.0345C6.27835 11.9549 6.29464 11.8695 6.2947 11.7833C6.29476 11.697 6.27858 11.6116 6.24708 11.532C6.21558 11.4523 6.16938 11.3799 6.11111 11.3188C6.05285 11.2578 5.98366 11.2094 5.90751 11.1763C5.83135 11.1433 5.74971 11.1263 5.66726 11.1262C5.5848 11.1261 5.50314 11.1431 5.42694 11.176C5.35074 11.2089 5.28149 11.2573 5.22314 11.3182L3.78483 12.8236V1.28281ZM8.1776 2.59531C8.1776 2.42126 8.24371 2.25434 8.3614 2.13127C8.47909 2.0082 8.6387 1.93906 8.80514 1.93906H17.5907C17.7571 1.93906 17.9167 2.0082 18.0344 2.13127C18.1521 2.25434 18.2182 2.42126 18.2182 2.59531C18.2182 2.76935 18.1521 2.93627 18.0344 3.05934C17.9167 3.18242 17.7571 3.25156 17.5907 3.25156H8.80514C8.6387 3.25156 8.47909 3.18242 8.3614 3.05934C8.24371 2.93627 8.1776 2.76935 8.1776 2.59531ZM8.80514 5.87656C8.6387 5.87656 8.47909 5.9457 8.3614 6.06877C8.24371 6.19184 8.1776 6.35876 8.1776 6.53281C8.1776 6.70685 8.24371 6.87377 8.3614 6.99684C8.47909 7.11992 8.6387 7.18906 8.80514 7.18906H15.0805C15.247 7.18906 15.4066 7.11992 15.5243 6.99684C15.642 6.87377 15.7081 6.70685 15.7081 6.53281C15.7081 6.35876 15.642 6.19184 15.5243 6.06877C15.4066 5.9457 15.247 5.87656 15.0805 5.87656H8.80514ZM8.80514 9.81405C8.6387 9.81405 8.47909 9.88319 8.3614 10.0063C8.24371 10.1293 8.1776 10.2963 8.1776 10.4703C8.1776 10.6444 8.24371 10.8113 8.3614 10.9343C8.47909 11.0574 8.6387 11.1266 8.80514 11.1266H12.5704C12.7368 11.1266 12.8964 11.0574 13.0141 10.9343C13.1318 10.8113 13.1979 10.6444 13.1979 10.4703C13.1979 10.2963 13.1318 10.1293 13.0141 10.0063C12.8964 9.88319 12.7368 9.81405 12.5704 9.81405H8.80514ZM8.80514 13.7516C8.6387 13.7516 8.47909 13.8207 8.3614 13.9438C8.24371 14.0668 8.1776 14.2338 8.1776 14.4078C8.1776 14.5819 8.24371 14.7488 8.3614 14.8718C8.47909 14.9949 8.6387 15.0641 8.80514 15.0641H10.0602C10.2266 15.0641 10.3863 14.9949 10.504 14.8718C10.6216 14.7488 10.6878 14.5819 10.6878 14.4078C10.6878 14.2338 10.6216 14.0668 10.504 13.9438C10.3863 13.8207 10.2266 13.7516 10.0602 13.7516H8.80514Z" fill="#805AD5"/>
</svg>
