<svg width="27" height="26" viewBox="0 0 27 26" fill="none" xmlns="http://www.w3.org/2000/svg">
<path d="M13.6217 6.80396C10.0211 6.80396 7.09198 9.86774 7.09198 13.633C7.09198 17.3983 10.0211 20.4621 13.6217 20.4621C17.2217 20.4621 20.1514 17.3989 20.1514 13.633C20.1514 9.86714 17.2217 6.80396 13.6217 6.80396Z" fill="#805AD5"/>
<path d="M13.6158 4.79581C12.9121 4.79581 12.3417 4.19935 12.3417 3.46404V1.33237C12.3417 0.596457 12.9121 0 13.6158 0C14.3195 0 14.8899 0.596457 14.8899 1.33237V3.46404C14.8899 4.19935 14.319 4.79581 13.6158 4.79581Z" fill="#805AD5"/>
<path d="M13.6158 26.0005C12.9121 26.0005 12.3417 25.404 12.3417 24.6687V22.5371C12.3417 21.8011 12.9121 21.2047 13.6158 21.2047C14.3195 21.2047 14.8899 21.8011 14.8899 22.5371V24.6687C14.8899 25.404 14.319 26.0005 13.6158 26.0005Z" fill="#805AD5"/>
<path d="M19.5934 7.38419C19.0964 6.8638 19.0964 6.02043 19.5934 5.50004L21.0349 3.99259C21.532 3.47281 22.339 3.47281 22.8366 3.99259C23.3343 4.51298 23.3343 5.35696 22.8366 5.87675L21.3951 7.38419C20.8981 7.90458 20.0916 7.90458 19.5934 7.38419Z" fill="#805AD5"/>
<path d="M7.63941 19.8803C7.14178 19.3593 6.33531 19.3593 5.83769 19.8803L4.39619 21.3871C3.89915 21.9069 3.89857 22.7515 4.39619 23.2713C4.89382 23.7911 5.70087 23.7911 6.19792 23.2713L7.63941 21.7632C8.13703 21.2434 8.13703 20.3995 7.63941 19.8803Z" fill="#805AD5"/>
<path d="M22.0772 13.6323C22.0772 12.8964 22.6476 12.3 23.3513 12.3H25.3897C26.0934 12.3 26.6638 12.8964 26.6638 13.6323C26.6638 14.3682 26.0934 14.9641 25.3897 14.9641H23.3513C22.6476 14.9641 22.0772 14.3682 22.0772 13.6323Z" fill="#805AD5"/>
<path d="M5.17351 13.6323C5.17351 12.8964 4.60315 12.3 3.89944 12.3H1.8616C1.15789 12.3 0.587524 12.8964 0.587524 13.6323C0.587524 14.3682 1.15789 14.9641 1.8616 14.9641H3.90001C4.60315 14.9641 5.17351 14.3682 5.17351 13.6323Z" fill="#805AD5"/>
<path d="M19.5939 19.8794C20.0915 19.3596 20.8985 19.3596 21.3956 19.8794L22.8371 21.3868C23.3347 21.906 23.3347 22.7506 22.8371 23.2704C22.3395 23.7902 21.533 23.7902 21.0354 23.2704L19.5939 21.7629C19.0962 21.2425 19.0962 20.3992 19.5939 19.8794Z" fill="#805AD5"/>
<path d="M7.63963 7.38404C8.13725 6.86365 8.13725 6.02028 7.63963 5.49988L6.19813 3.99305C5.70051 3.47266 4.89404 3.47266 4.39641 3.99305C3.89879 4.51283 3.89879 5.35681 4.39641 5.87659L5.8379 7.38404C6.33553 7.90503 7.142 7.90503 7.63963 7.38404Z" fill="#805AD5"/>
</svg>
